<svg width="48" height="48" viewBox="0 0 48 48" fill="none" xmlns="http://www.w3.org/2000/svg">
<path d="M8.52002 22.0399V31.9799C8.52002 35.6199 8.52002 35.6199 11.96 37.9399L21.42 43.3999C22.84 44.2199 25.16 44.2199 26.58 43.3999L36.04 37.9399C39.48 35.6199 39.48 35.6199 39.48 31.9799V22.0399C39.48 18.3999 39.48 18.3999 36.04 16.0799L26.58 10.6199C25.16 9.79988 22.84 9.79988 21.42 10.6199L11.96 16.0799C8.52002 18.3999 8.52002 18.3999 8.52002 22.0399Z" stroke="white" stroke-width="1.5" stroke-linecap="round" stroke-linejoin="round"/>
<path d="M35 15.26V10C35 6 33 4 29 4H19C15 4 13 6 13 10V15.12" stroke="white" stroke-width="1.5" stroke-linecap="round" stroke-linejoin="round"/>
<path d="M25.2601 21.9799L26.4 23.7599C26.58 24.0399 26.9801 24.3199 27.2801 24.3999L29.32 24.9199C30.58 25.2399 30.9201 26.3199 30.1001 27.3199L28.7601 28.9399C28.5601 29.1999 28.4001 29.6599 28.4201 29.9799L28.5401 32.0799C28.6201 33.3799 27.7 34.0399 26.5 33.5599L24.5401 32.7799C24.2401 32.6599 23.7401 32.6599 23.4401 32.7799L21.48 33.5599C20.28 34.0399 19.36 33.3599 19.44 32.0799L19.56 29.9799C19.58 29.6599 19.42 29.1799 19.22 28.9399L17.88 27.3199C17.06 26.3199 17.4 25.2399 18.66 24.9199L20.7001 24.3999C21.0201 24.3199 21.42 24.0199 21.58 23.7599L22.72 21.9799C23.44 20.8999 24.5601 20.8999 25.2601 21.9799Z" stroke="white" stroke-width="1.5" stroke-linecap="round" stroke-linejoin="round"/>
</svg>
