<svg width="31" height="30" viewBox="0 0 31 30" fill="none" xmlns="http://www.w3.org/2000/svg">
<path d="M19.7168 14.9999C19.7168 17.4749 17.7168 19.4749 15.2418 19.4749C12.7668 19.4749 10.7668 17.4749 10.7668 14.9999C10.7668 12.5249 12.7668 10.5249 15.2418 10.5249C17.7168 10.5249 19.7168 12.5249 19.7168 14.9999Z" stroke="white" stroke-width="1.875" stroke-linecap="round" stroke-linejoin="round"/>
<path d="M15.242 25.3374C19.6545 25.3374 23.767 22.7374 26.6295 18.2374C27.7545 16.4749 27.7545 13.5124 26.6295 11.7499C23.767 7.2499 19.6545 4.6499 15.242 4.6499C10.8295 4.6499 6.71699 7.2499 3.85449 11.7499C2.72949 13.5124 2.72949 16.4749 3.85449 18.2374C6.71699 22.7374 10.8295 25.3374 15.242 25.3374Z" stroke="white" stroke-width="1.875" stroke-linecap="round" stroke-linejoin="round"/>
</svg>
