<svg width="34" height="34" viewBox="0 0 34 34" fill="none" xmlns="http://www.w3.org/2000/svg">
<path d="M20.2867 27.0157C20.2867 27.8799 19.72 29.0132 18.9975 29.4524L17 30.7416C15.1442 31.8891 12.5659 30.5999 12.5659 28.3049V20.7257C12.5659 19.7199 11.9992 18.4307 11.4184 17.7224L5.97834 11.9991C5.25584 11.2766 4.68921 10.0016 4.68921 9.13742V5.85074C4.68921 4.13657 5.9784 2.84741 7.5509 2.84741H26.4492C28.0217 2.84741 29.3109 4.13656 29.3109 5.70906V8.85407C29.3109 10.0016 28.5884 11.4324 27.88 12.1407" stroke="#292D32" stroke-width="3" stroke-miterlimit="10" stroke-linecap="round" stroke-linejoin="round"/>
<path d="M22.7658 23.4033C25.2695 23.4033 27.2991 21.3737 27.2991 18.87C27.2991 16.3663 25.2695 14.3367 22.7658 14.3367C20.2621 14.3367 18.2324 16.3663 18.2324 18.87C18.2324 21.3737 20.2621 23.4033 22.7658 23.4033Z" stroke="#292D32" stroke-width="3" stroke-linecap="round" stroke-linejoin="round"/>
<path d="M28.1491 24.2533L26.7324 22.8367" stroke="#292D32" stroke-width="3" stroke-linecap="round" stroke-linejoin="round"/>
</svg>
