<svg width="246" height="79" viewBox="0 0 246 79" fill="none" xmlns="http://www.w3.org/2000/svg">
<g filter="url(#filter0_d_21_70)">
<path d="M108.736 56.6832C105.486 58.1588 103.252 58.8966 102.036 58.8966C101.318 58.8966 100.221 58.1488 98.7457 56.6533C97.29 55.1577 95.5551 53.2434 93.5411 50.9103C92.2648 51.3689 91.0584 51.5982 89.9218 51.5982C87.7881 51.5982 85.8937 51.0997 84.2386 50.1027C82.5835 49.0857 81.2973 47.6798 80.38 45.8851C79.4827 44.0904 79.034 42.0565 79.034 39.7832C79.034 37.4501 79.7219 35.2965 81.0979 33.3223C82.4738 31.3282 84.1788 29.7628 86.2127 28.6262C88.2467 27.4696 90.191 26.8913 92.0455 26.8913C94.1991 26.8913 96.1035 27.3998 97.7586 28.4168C99.4137 29.4338 100.69 30.8396 101.587 32.6343C102.505 34.429 102.963 36.463 102.963 38.7363C102.963 41.0295 102.285 43.1532 100.929 45.1074C99.5932 47.0617 97.9081 48.627 95.8742 49.8035C97.7686 51.2194 99.5134 52.4657 101.109 53.5425C102.704 54.6392 103.671 55.1876 104.01 55.1876H108.048L108.736 56.6832ZM83.431 38.3474C83.431 40.2817 83.7301 42.0465 84.3283 43.6418C84.9265 45.2371 85.8438 46.5133 87.0802 47.4704C88.3165 48.4276 89.842 48.9062 91.6566 48.9062C92.9329 48.9062 94.0894 48.5273 95.1264 47.7696C96.1832 47.0118 97.0108 45.9649 97.609 44.6288C98.2272 43.2928 98.5363 41.7972 98.5363 40.1421C98.5363 38.1879 98.2372 36.4132 97.6389 34.8179C97.0407 33.2226 96.1234 31.9563 94.8871 31.0191C93.6507 30.0619 92.1253 29.5834 90.3106 29.5834C89.0344 29.5834 87.8678 29.9622 86.811 30.72C85.774 31.4778 84.9465 32.5247 84.3283 33.8607C83.7301 35.1968 83.431 36.6923 83.431 38.3474ZM124.367 51H118.474V47.9789L114.765 51.0598C114.386 51.2194 113.828 51.2991 113.09 51.2991C111.694 51.2991 110.588 50.8903 109.77 50.0727C108.953 49.2352 108.544 48.1086 108.544 46.6927V39.6935L105.882 38.1381V37.0612L111.146 34.5487H112.432V45.0476C112.432 46.1244 112.602 46.8822 112.941 47.3209C113.28 47.7396 113.868 47.949 114.706 47.949C115.284 47.949 115.862 47.8394 116.44 47.62C117.019 47.4006 117.697 46.9819 118.474 46.3637V39.6935L115.812 38.1381V37.0612L121.077 34.5487H122.363V48.6669L125.055 49.654L124.367 51ZM136.126 51H127.571V49.9232L130.233 47.7995V39.4242L127.571 37.5996V36.5228L132.836 34.4888H134.122V48.6669L136.814 49.654L136.126 51ZM132.058 25.5154C132.716 25.5154 133.254 25.7547 133.673 26.2333C134.092 26.6919 134.301 27.2602 134.301 27.9382C134.301 28.4168 134.152 28.8755 133.853 29.3142C133.554 29.7329 133.175 30.0719 132.716 30.3312C132.257 30.5704 131.809 30.6901 131.37 30.6901C130.732 30.6901 130.203 30.4608 129.785 30.0021C129.366 29.5435 129.157 28.9652 129.157 28.2673C129.157 27.7887 129.306 27.34 129.605 26.9212C129.904 26.4825 130.283 26.1435 130.742 25.9042C131.2 25.645 131.639 25.5154 132.058 25.5154ZM151.458 47.1115L152.744 44.6288L153.791 44.9579V51.5384L151.996 51H139.792V49.7138L149.693 38.9457H142.395L141.198 41.1591L140.151 40.8002V34.5188L141.946 35.0572H154.15V36.3434L144.309 47.1115H151.458ZM169.948 47.1115L171.234 44.6288L172.281 44.9579V51.5384L170.487 51H158.283V49.7138L168.183 38.9457H160.885L159.688 41.1591L158.642 40.8002V34.5188L160.436 35.0572H172.64V36.3434L162.799 47.1115H169.948ZM186.883 51.0299C186.025 51.2094 184.989 51.2991 183.772 51.2991C182.436 51.2991 181.23 50.9601 180.153 50.2821C179.096 49.5842 178.258 48.647 177.64 47.4704C177.042 46.2939 176.743 44.9878 176.743 43.552C176.743 41.9966 177.212 40.5509 178.149 39.2149C179.106 37.8589 180.302 36.7821 181.738 35.9844C183.174 35.1668 184.56 34.7581 185.896 34.7581C187.83 34.7581 189.326 35.5158 190.383 37.0313C191.459 38.5468 191.988 40.5709 191.968 43.1034H180.96C181.1 44.6986 181.559 46.0048 182.336 47.0218C183.114 48.0188 184.171 48.5173 185.507 48.5173C186.823 48.5173 188.698 47.5801 191.13 45.7057L192.028 46.932L186.883 51.0299ZM184.191 37.48C182.137 37.48 181.06 38.8958 180.96 41.7274H187.691C187.511 40.7104 187.322 39.9228 187.122 39.3644C186.943 38.8061 186.624 38.3574 186.165 38.0184C185.706 37.6595 185.038 37.48 184.161 37.48H184.191ZM205.083 38.1381C204.664 38.1381 204.225 38.2477 203.767 38.4671C203.308 38.6864 202.79 39.0853 202.211 39.6635V48.4276L206.459 49.6839L205.801 51.0299H195.661V49.9531L198.323 47.8294V39.6935L195.661 38.1081V37.0313L200.985 34.4888L201.972 38.1081L204.993 34.9973C205.452 34.8378 205.99 34.7581 206.608 34.7581C207.346 34.7581 207.984 34.9475 208.523 35.3264C209.081 35.7053 209.5 36.2437 209.779 36.9416L207.625 39.6336H206.339C206.259 39.0952 206.12 38.7163 205.92 38.497C205.721 38.2577 205.442 38.1381 205.083 38.1381ZM220.048 51H211.493V49.9232L214.155 47.7995V39.4242L211.493 37.5996V36.5228L216.757 34.4888H218.043V48.6669L220.736 49.654L220.048 51ZM215.98 25.5154C216.638 25.5154 217.176 25.7547 217.595 26.2333C218.014 26.6919 218.223 27.2602 218.223 27.9382C218.223 28.4168 218.073 28.8755 217.774 29.3142C217.475 29.7329 217.096 30.0719 216.638 30.3312C216.179 30.5704 215.73 30.6901 215.292 30.6901C214.654 30.6901 214.125 30.4608 213.706 30.0021C213.288 29.5435 213.078 28.9652 213.078 28.2673C213.078 27.7887 213.228 27.34 213.527 26.9212C213.826 26.4825 214.205 26.1435 214.663 25.9042C215.122 25.645 215.561 25.5154 215.98 25.5154ZM239.148 51H233.226V48.3977L229.846 51.0598C229.447 51.2194 228.949 51.2991 228.35 51.2991C226.596 51.2991 225.329 50.8704 224.552 50.0129C223.774 49.1355 223.385 48.0786 223.385 46.8423C223.385 46.1244 223.634 45.4165 224.133 44.7186C224.631 44.0007 225.359 43.3227 226.316 42.6846H233.226V41.0694C233.226 38.7363 231.98 37.5697 229.487 37.5697C228.231 37.5697 226.655 38.2776 224.761 39.6935L223.864 38.4372L228.141 35.0572C229.058 34.8578 230.055 34.7581 231.132 34.7581C233.027 34.7581 234.492 35.2167 235.529 36.134C236.586 37.0513 237.114 38.3773 237.114 40.1122V48.6071L239.806 49.654L239.148 51ZM229.427 48.4575C230.604 48.4575 231.87 47.9291 233.226 46.8722V44.0605H228.021C227.782 44.3596 227.613 44.6588 227.513 44.9579C227.413 45.257 227.363 45.586 227.363 45.945C227.363 46.6429 227.553 47.2411 227.932 47.7396C228.31 48.2182 228.809 48.4575 229.427 48.4575Z" fill="white"/>
<path d="M45.9998 13.2498H24.9998C14.4998 13.2498 9.24976 18.4998 9.24976 28.9998V63.1248C9.24976 64.5685 10.431 65.7498 11.8748 65.7498H45.9998C56.4998 65.7498 61.7498 60.4998 61.7498 49.9998V28.9998C61.7498 18.4998 56.4998 13.2498 45.9998 13.2498Z" stroke="white" stroke-width="4.76645" stroke-linecap="round" stroke-linejoin="round"/>
<path d="M37.8885 28.5802L24.2647 42.2039C23.7397 42.7289 23.241 43.7527 23.136 44.4877L22.401 49.6852C22.1385 51.5752 23.451 52.8877 25.341 52.6252L30.5384 51.8902C31.2734 51.7852 32.2972 51.2864 32.8222 50.7614L46.446 37.1377C48.7822 34.8014 49.911 32.0714 46.446 28.6064C42.981 25.1152 40.251 26.2177 37.8885 28.5802Z" stroke="white" stroke-width="4.76645" stroke-miterlimit="10" stroke-linecap="round" stroke-linejoin="round"/>
<path d="M35.946 30.5227C37.101 34.644 40.3298 37.899 44.4773 39.054" stroke="white" stroke-width="4.76645" stroke-miterlimit="10" stroke-linecap="round" stroke-linejoin="round"/>
</g>
<defs>
<filter id="filter0_d_21_70" x="0" y="8" width="243.806" height="71" filterUnits="userSpaceOnUse" color-interpolation-filters="sRGB">
<feFlood flood-opacity="0" result="BackgroundImageFix"/>
<feColorMatrix in="SourceAlpha" type="matrix" values="0 0 0 0 0 0 0 0 0 0 0 0 0 0 0 0 0 0 127 0" result="hardAlpha"/>
<feOffset dy="4"/>
<feGaussianBlur stdDeviation="2"/>
<feComposite in2="hardAlpha" operator="out"/>
<feColorMatrix type="matrix" values="0 0 0 0 0 0 0 0 0 0 0 0 0 0 0 0 0 0 0.25 0"/>
<feBlend mode="normal" in2="BackgroundImageFix" result="effect1_dropShadow_21_70"/>
<feBlend mode="normal" in="SourceGraphic" in2="effect1_dropShadow_21_70" result="shape"/>
</filter>
</defs>
</svg>
