<svg width="38" height="38" viewBox="0 0 38 38" fill="none" xmlns="http://www.w3.org/2000/svg">
<path d="M5.54178 32.4584C6.85594 33.7725 8.97761 33.7725 10.2918 32.4584L30.8751 11.875C32.1893 10.5609 32.1893 8.4392 30.8751 7.12503C29.5609 5.81086 27.4393 5.81086 26.1251 7.12503L5.54178 27.7084C4.22761 29.0225 4.22761 31.1442 5.54178 32.4584Z" stroke="white" stroke-width="1.5" stroke-linecap="round" stroke-linejoin="round"/>
<path d="M28.5159 14.2341L23.7659 9.48413" stroke="white" stroke-width="1.5" stroke-linecap="round" stroke-linejoin="round"/>
<path d="M13.4583 3.86341L15.8333 3.16675L15.1366 5.54175L15.8333 7.91675L13.4583 7.22008L11.0833 7.91675L11.7799 5.54175L11.0833 3.16675L13.4583 3.86341Z" stroke="white" stroke-linecap="round" stroke-linejoin="round"/>
<path d="M7.125 13.3634L9.5 12.6667L8.80333 15.0417L9.5 17.4167L7.125 16.7201L4.75 17.4167L5.44667 15.0417L4.75 12.6667L7.125 13.3634Z" stroke="white" stroke-linecap="round" stroke-linejoin="round"/>
<path d="M30.875 21.2799L33.25 20.5833L32.5533 22.9583L33.25 25.3333L30.875 24.6366L28.5 25.3333L29.1967 22.9583L28.5 20.5833L30.875 21.2799Z" stroke="white" stroke-linecap="round" stroke-linejoin="round"/>
</svg>
