<svg width="24" height="24" viewBox="0 0 24 24" fill="none" xmlns="http://www.w3.org/2000/svg">
<path d="M9.80029 0.399902C14.9915 0.400166 19.2007 4.60898 19.2007 9.80029C19.2006 11.7453 18.6082 13.5518 17.5962 15.0513L23.0728 20.5278C23.7752 21.2308 23.7755 22.37 23.0728 23.0728C22.37 23.7755 21.2308 23.7752 20.5278 23.0728L15.0513 17.5962C13.5518 18.6082 11.7453 19.2006 9.80029 19.2007C4.60898 19.2007 0.400166 14.9915 0.399902 9.80029C0.399902 4.60882 4.60882 0.399902 9.80029 0.399902ZM9.80029 3.20068C6.15521 3.20068 3.20068 6.15521 3.20068 9.80029C3.20095 13.4451 6.15538 16.3999 9.80029 16.3999C13.445 16.3996 16.3996 13.445 16.3999 9.80029C16.3999 6.15538 13.4451 3.20095 9.80029 3.20068Z" fill="black"/>
</svg>
