<svg width="59" height="58" viewBox="0 0 59 58" fill="none" xmlns="http://www.w3.org/2000/svg">
<g filter="url(#filter0_d_26_93)">
<rect x="4.24194" width="50" height="50" rx="10" fill="#4CE929"/>
<rect x="4.74194" y="0.5" width="49" height="49" rx="9.5" stroke="black" stroke-opacity="0.3"/>
<path d="M33.7168 24.9999C33.7168 27.4749 31.7168 29.4749 29.2418 29.4749C26.7668 29.4749 24.7668 27.4749 24.7668 24.9999C24.7668 22.5249 26.7668 20.5249 29.2418 20.5249C31.7168 20.5249 33.7168 22.5249 33.7168 24.9999Z" stroke="white" stroke-width="1.875" stroke-linecap="round" stroke-linejoin="round"/>
<path d="M29.242 35.3374C33.6545 35.3374 37.767 32.7374 40.6295 28.2374C41.7545 26.4749 41.7545 23.5124 40.6295 21.7499C37.767 17.2499 33.6545 14.6499 29.242 14.6499C24.8295 14.6499 20.717 17.2499 17.8545 21.7499C16.7295 23.5124 16.7295 26.4749 17.8545 28.2374C20.717 32.7374 24.8295 35.3374 29.242 35.3374Z" stroke="white" stroke-width="1.875" stroke-linecap="round" stroke-linejoin="round"/>
</g>
<defs>
<filter id="filter0_d_26_93" x="0.241943" y="0" width="58" height="58" filterUnits="userSpaceOnUse" color-interpolation-filters="sRGB">
<feFlood flood-opacity="0" result="BackgroundImageFix"/>
<feColorMatrix in="SourceAlpha" type="matrix" values="0 0 0 0 0 0 0 0 0 0 0 0 0 0 0 0 0 0 127 0" result="hardAlpha"/>
<feOffset dy="4"/>
<feGaussianBlur stdDeviation="2"/>
<feComposite in2="hardAlpha" operator="out"/>
<feColorMatrix type="matrix" values="0 0 0 0 0 0 0 0 0 0 0 0 0 0 0 0 0 0 0.25 0"/>
<feBlend mode="normal" in2="BackgroundImageFix" result="effect1_dropShadow_26_93"/>
<feBlend mode="normal" in="SourceGraphic" in2="effect1_dropShadow_26_93" result="shape"/>
</filter>
</defs>
</svg>
